<svg id="Layer_1" data-name="Layer 1" xmlns="http://www.w3.org/2000/svg" viewBox="0 0 1413.54 217.52"><path d="M154.17,137.36c-2.93-7.68-10.63-10.81-15.9-16.24a33.52,33.52,0,0,1-9.69-20.56c-2-17.16-13.78-24.92-30.38-19.85a37.35,37.35,0,0,1-4.09.78,16.49,16.49,0,0,0-10.46-.09Q62.1,75,62.15,55c0-13.51,7.27-22.38,21.47-26.31a13.47,13.47,0,0,0,10.55-.09c11.75,2.64,20.06,10,21.3,21.62C116.9,63.64,127.74,66.17,136,72c2.73,1.93,4.32-1.59,6.17-2.63,15.12-8.49,29.9-8.72,44.18,1.44,2.52,1.78,3.34,1.89,6,.28,9.83-5.84,18.11-11.52,20.5-24.65,1.64-9,9.39-16.36,20.13-17.73a13.82,13.82,0,0,0,10.53.05c13.25,3.74,21.56,13.66,21.65,25.82.09,13.47-7.34,22.71-21.68,26.94a15.58,15.58,0,0,0-10.48,0c-6.5-.84-12.66-4.79-19.6-1.38-8.93,4.39-15.64,9.42-14.92,21.21.76,12.34-9.07,19.6-16.93,26.88-11.15,10.31-12.3,25.51-1.34,36.34,4.49,4.44,10,8.14,9.73,15.53-1.38,3.45-1,6.93-.23,10.43-4.73,17.36-21.06,23.25-31.36,21-13.84-3-22.87-15-21.82-29.59.39-5.46,2.14-10,6.62-13.82s9-7.86,10.93-13.81A32.21,32.21,0,0,0,154.17,137.36Z" style="fill:#5cc560"/><path d="M243.49,28.9c-3.52,2.79-7,2.85-10.53,0A19.13,19.13,0,0,1,243.49,28.9Z" style="fill:#5cc560"/><path d="M83.65,81.51c3.51-2.53,7-2.62,10.46.09A20.17,20.17,0,0,1,83.65,81.51Z" style="fill:#5cc560"/><path d="M233,81.29q5.23-4,10.48,0A20.46,20.46,0,0,1,233,81.29Z" style="fill:#5cc560"/><path d="M189.7,190.3c-2.34-3.53-2.58-7,.23-10.44A20.75,20.75,0,0,1,189.7,190.3Z" style="fill:#5cc560"/><path d="M94.17,28.58c-3.49,3-7,2.91-10.55.1A20.19,20.19,0,0,1,94.17,28.58Z" style="fill:#5cc560"/><path d="M162.13,116c-10.32,0-16.6-6.79-16.66-18s7.17-18.44,18.2-18.56c10.49-.12,18.43,8.16,18.15,18.93S173.78,116.05,162.13,116Z" style="fill:#fcfdfd"/><path d="M367.87,70.32V109H330.45V70.47H309.74v98.28h20.71c0-9.25-.09-18.19,0-27.14.06-4.42-1.07-10.24,1.25-12.83,2-2.23,8.11-.86,12.41-.91,7.76-.08,15.53,0,23.81,0v40.78H389V70.32Z" style="fill:#fff"/><path d="M473.06,166.81V95.75c-5,0-9.7.25-14.32-.07-4.41-.31-6.08.87-6,5.71.33,15.32.13,30.65.1,46,0,1.76-.2,3.51-.31,5.35-2,.2-3.49.4-5,.49-11.94.73-15.63-1.8-16.46-13.85-.85-12.44-.35-25-.47-37.45,0-1.92-.18-3.84-.28-5.82h-20.7c.71,18.41.7,36.53,2.37,54.49.91,9.83,8,16.42,17.82,18.73C444.5,172.76,458.87,170.19,473.06,166.81Z" style="fill:#fff"/><path d="M889.06,88.45c1.05-4.15,2-8.34,3.21-12.48.78-2.77-.39-4.23-2.94-4.52-6.57-.73-13.26-2.31-19.72-1.7-16.47,1.56-25.34,10.15-26.06,26.71-1,23.11-.53,46.29-.55,69.43,0,1,1.4,2.94,2.21,3,5.92.25,11.85.14,18.34.14v-47.5H889V104.18H864.08C861.65,89,869,84.53,889.06,88.45Z" style="fill:#fff"/><path d="M645.89,72.32c0,12.57-.09,24.86,0,37.15.13,12.64.09,25.3.82,37.91.6,10.43,5.44,18.47,16.08,21.71,9.7,2.95,19.4,2.29,28.89-1,1.11-.38,2.52-2.32,2.4-3.39-.45-4.23-1.46-8.4-2.3-12.79-4.18.59-7.91,1.26-11.68,1.62-6.82.64-11.8-1.7-12.38-7.25-1.16-11-1.22-22-1.76-33.57h25.24v-17c-7.06,0-13.7-.15-20.33.07-3.52.11-4.61-1.18-4.51-4.63.21-7.28.06-14.58.06-22.26Z" style="fill:#fff"/><path d="M804.7,104.41c-.32-6-.38-11.26,3.78-14.74,6.59-5.5,14.14-2.66,21.76-1.08,1.25-5.38,2.47-10.62,3.83-16.43-5.07-1-9.4-2.33-13.81-2.69-24.65-2-36.45,11.56-36,31.86.44,20.47.09,41,.11,61.43,0,1.94.17,3.87.26,5.81h19.84V121.35h25.76V104.41Z" style="fill:#fff"/><path d="M627.43,97.53a61.9,61.9,0,0,0-30.59-3.1c-11.89,1.78-19.22,8.74-20.29,18.21-1.4,12.24,3.06,19.55,15.28,24.91,4.56,2,9.39,3.51,13.68,6,2.08,1.2,4.37,4,4.5,6.22.23,3.74-3.41,4.72-6.5,4.49-8.51-.63-17-1.63-26-2.53-.77,3.51-2,8-2.63,12.57-.15,1,1.28,3,2.37,3.4,12.62,4.1,25.46,4.88,38.29,1.16,8.08-2.34,13.79-7.3,14.86-16.22,1.16-9.77-1.46-17.86-10.75-22.65-3.68-1.9-7.55-3.43-11.32-5.16-3-1.38-6.27-2.46-8.93-4.35-1.47-1-2.86-3.65-2.6-5.27s2.43-3.71,4.14-4.18a26.42,26.42,0,0,1,9.35-.59c4.53.44,9,1.48,13.69,2.3C625.17,107.5,626.26,102.68,627.43,97.53Z" style="fill:#fff"/><path d="M1195.68,168.76v-6.12c0-17.16.16-34.32-.11-51.47-.07-4.63,1.33-6.8,6-6.9,4.48-.09,9-.67,13.43-.51,11.81.41,17.82,5.45,18.59,17.11.93,13.93.72,27.94,1,41.91,0,1.94,0,3.88,0,6h8.56c0-2.59,0-4.89,0-7.18-.22-14,.16-28-.82-41.92-1.08-15.25-9.8-23.35-25-23.55-8.57-.11-17.15,1.48-25.73,2.3-3.68.35-4.78,2.26-4.74,6,.19,19.82.08,39.64.1,59.46,0,1.6.16,3.2.26,4.92Z" style="fill:#595959"/><path d="M952.34,168.76h9V80.1h30.79V72.3H926.92c-6.6,0-6.95.48-5.16,7.77,8.15,0,16.45.23,24.73-.09,4.52-.17,6,1.16,6,5.84-.21,25.46-.1,50.93-.1,76.4Z" style="fill:#595959"/><path d="M1275.57,104.52c7.73,0,15,0,22.35,0,6.83,0,7.09-.35,5.35-7.56h-28.16v-23c-3.38,2-8.7-1.11-8.7,5,0,23.66-.18,47.32.41,71,.32,12.9,6.92,19.86,18.64,20.58a53.7,53.7,0,0,0,15.72-1.75c6.37-1.53,6.44-2.38,3.4-8.69-3.32.91-6.6,2.16-10,2.69-11.27,1.74-18.25-2-18.79-11.68C1274.94,135.82,1275.57,120.51,1275.57,104.52Z" style="fill:#595959"/><path d="M1093.39,163.71c-9.51-2.67-10.71-4.25-10.71-13.85q0-41.48,0-82.94c0-1.9-.16-3.81-.27-6.1l-8.49,1.69v6q0,38,0,75.94a98.55,98.55,0,0,0,.41,10.46c1.24,11.13,5.89,15.14,17.69,15.27C1092.44,168.14,1092.88,166.07,1093.39,163.71Z" style="fill:#595959"/><path d="M367.87,70.32H389v98.31H368V127.85c-8.28,0-16.05-.06-23.81,0-4.3,0-10.42-1.32-12.41.91-2.32,2.59-1.19,8.41-1.25,12.83-.12,8.95,0,17.89,0,27.14H309.74V70.47h20.71V109h37.42Z" style="fill:#fff"/><path d="M493.83,166.87V72.27l20.54-3.38v28c3.74-.87,6.93-1.77,10.16-2.33,16.26-2.8,30,5.44,35,21.13a51.81,51.81,0,0,1,1,28.52c-3.46,14.18-12.41,22.89-26.72,25.66C520.29,172.48,507.06,170.13,493.83,166.87Zm20.53-14.5c17,4,26.38-3.17,26.52-20a50,50,0,0,0-.27-6.48c-1.49-12.44-12.87-18.41-24-12.53-1,.52-2.18,1.86-2.19,2.83C514.31,128.28,514.36,140.39,514.36,152.37Z" style="fill:#fff"/><path d="M744.32,124c1.27-7.34-2.4-12.6-10.21-13-6.09-.29-12.25.68-18.37,1.17a42.56,42.56,0,0,0-4.59.88c-.5-2.42-1-4.5-1.34-6.61-.47-2.93-.81-5.87-1.29-9.4,14.13-3.27,28-5.59,41.82-.29,9.77,3.74,13.67,12,14,21.74.45,15,.35,30,.22,45,0,1.42-1.65,3.83-2.89,4.09-13.25,2.74-26.6,4.39-40.14,2.16-15.54-2.56-23.93-16-18.82-30.63,3.89-11.14,13.47-14,23.8-15C732.24,123.58,738.1,124,744.32,124Zm.57,22.4h0a34.8,34.8,0,0,0-.1-6c-.17-1-1.37-2.54-2.14-2.55a88.46,88.46,0,0,0-14.29.41c-4,.56-6.39,3.51-6.42,7.71s2,7.47,6.46,8.12c3.91.57,7.91.53,11.86.8,3.68.26,5.17-1.41,4.69-5A26.91,26.91,0,0,1,744.89,146.42Z" style="fill:#fff"/><path d="M473.06,166.81c-14.19,3.38-28.56,5.95-43.19,2.49-9.78-2.31-16.91-8.9-17.82-18.73-1.67-18-1.66-36.08-2.37-54.49h20.7c.1,2,.26,3.9.28,5.82.12,12.49-.38,25,.47,37.45.83,12.05,4.52,14.58,16.46,13.85,1.48-.09,3-.29,5-.49.11-1.84.31-3.59.31-5.35,0-15.32.23-30.65-.1-46-.11-4.84,1.56-6,6-5.71,4.62.32,9.28.07,14.32.07Z" style="fill:#fff"/><path d="M889.06,88.45c-20.1-3.92-27.41.56-25,15.73H889v17.33H863.55V169c-6.49,0-12.42.11-18.34-.14-.81,0-2.21-1.94-2.21-3,0-23.14-.45-46.32.55-69.43.72-16.56,9.59-25.15,26.06-26.71,6.46-.61,13.15,1,19.72,1.7,2.55.29,3.72,1.75,2.94,4.52C891.1,80.11,890.11,84.3,889.06,88.45Z" style="fill:#fff"/><path d="M645.89,72.32l20.56-3.4c0,7.68.15,15-.06,22.26-.1,3.45,1,4.74,4.51,4.63,6.63-.22,13.27-.07,20.33-.07v17H666c.54,11.52.6,22.6,1.76,33.57.58,5.55,5.56,7.89,12.38,7.25,3.77-.36,7.5-1,11.68-1.62.84,4.39,1.85,8.56,2.3,12.79.12,1.07-1.29,3-2.4,3.39-9.49,3.31-19.19,4-28.89,1-10.64-3.24-15.48-11.28-16.08-21.71-.73-12.61-.69-25.27-.82-37.91C645.8,97.18,645.89,84.89,645.89,72.32Z" style="fill:#fff"/><path d="M804.7,104.41h25.51v16.94H804.45v47.22H784.61c-.09-1.94-.26-3.87-.26-5.81,0-20.47.33-41-.11-61.43-.43-20.3,11.37-33.9,36-31.86,4.41.36,8.74,1.67,13.81,2.69-1.36,5.81-2.58,11-3.83,16.43-7.62-1.58-15.17-4.42-21.76,1.08C804.32,93.15,804.38,98.43,804.7,104.41Z" style="fill:#fff"/><path d="M627.43,97.53c-1.17,5.15-2.26,10-3.45,15.18-4.69-.82-9.16-1.86-13.69-2.3a26.42,26.42,0,0,0-9.35.59c-1.71.47-3.87,2.54-4.14,4.18s1.13,4.22,2.6,5.27c2.66,1.89,5.91,3,8.93,4.35,3.77,1.73,7.64,3.26,11.32,5.16,9.29,4.79,11.91,12.88,10.75,22.65-1.07,8.92-6.78,13.88-14.86,16.22-12.83,3.72-25.67,2.94-38.29-1.16-1.09-.36-2.52-2.37-2.37-3.4.67-4.57,1.86-9.06,2.63-12.57,9,.9,17.49,1.9,26,2.53,3.09.23,6.73-.75,6.5-4.49-.13-2.21-2.42-5-4.5-6.22-4.29-2.46-9.12-4-13.68-6-12.22-5.36-16.68-12.67-15.28-24.91,1.07-9.47,8.4-16.43,20.29-18.21A61.9,61.9,0,0,1,627.43,97.53Z" style="fill:#fff"/><path d="M1158.87,159.92c2.88,6.57,2.64,7-3.95,9a48,48,0,0,1-24.66.76c-10.81-2.49-18.7-8.77-21.91-19.63-4.82-16.29-4.48-32.1,7.6-45.45,8.42-9.32,19.42-11.11,31.12-7.56,11.12,3.38,16.39,12,18.17,22.86.77,4.69.79,9.49,1.2,14.85h-50.27C1110.24,155.65,1130,167,1158.87,159.92ZM1157,127.41c-.18-8.82-1.76-16.75-9.51-21.55-6.76-4.2-14.06-3.89-20.81.33-7.64,4.78-10.74,12.15-11.33,21.22Z" style="fill:#595959"/><path d="M1041.66,128.12c0-3,.07-5.33,0-7.63-.42-11.59-6.3-17.5-17.91-17.32-5.57.08-11.12,1.17-16.78,1.81-2.42-6.73-2.43-7.3,4.93-8.27a83,83,0,0,1,19.79-.49c10.76,1.19,18,9.45,18.45,21.5.58,16.44.15,32.92.15,49.87-12.43,2.64-24.82,4.9-37.39,1.79-9.38-2.33-15-9.55-15.32-18.59-.41-11.78,3.72-18.46,13.88-22.1C1021.15,125.22,1031,125.51,1041.66,128.12Zm0,34c0-8.5.12-16.12-.12-23.73a4.55,4.55,0,0,0-2.66-3.33c-7.84-1.93-15.78-2.29-23.51.47-6.44,2.29-9.32,7-9,13.86s3.66,11.71,10.56,12.51C1024.85,162.79,1033,162.09,1041.66,162.09Z" style="fill:#595959"/><path d="M1195.68,168.76h-8.51c-.1-1.72-.26-3.32-.26-4.92,0-19.82.09-39.64-.1-59.46,0-3.72,1.06-5.63,4.74-6,8.58-.82,17.16-2.41,25.73-2.3,15.22.2,23.94,8.3,25,23.55,1,13.92.6,27.94.82,41.92,0,2.29,0,4.59,0,7.18h-8.56c0-2.09,0-4,0-6-.28-14-.07-28-1-41.91-.77-11.66-6.78-16.7-18.59-17.11-4.46-.16-9,.42-13.43.51-4.64.1-6,2.27-6,6.9.27,17.15.11,34.31.11,51.47Z" style="fill:#595959"/><path d="M952.34,168.76v-6.54c0-25.47-.11-50.94.1-76.4,0-4.68-1.43-6-6-5.84-8.28.32-16.58.09-24.73.09-1.79-7.29-1.44-7.77,5.16-7.77h65.17v7.8H961.3v88.66Z" style="fill:#595959"/><path d="M1275.57,104.52c0,16-.63,31.3.22,46.54.54,9.68,7.52,13.42,18.79,11.68,3.4-.53,6.68-1.78,10-2.69,3,6.31,3,7.16-3.4,8.69a53.7,53.7,0,0,1-15.72,1.75c-11.72-.72-18.32-7.68-18.64-20.58-.59-23.65-.43-47.31-.41-71,0-6.11,5.32-3,8.7-5V97h28.16c1.74,7.21,1.48,7.55-5.35,7.56C1290.61,104.53,1283.3,104.52,1275.57,104.52Z" style="fill:#595959"/><path d="M1093.39,163.71c-.51,2.36-1,4.43-1.38,6.43-11.8-.13-16.45-4.14-17.69-15.27a98.55,98.55,0,0,1-.41-10.46q0-38,0-75.94v-6l8.49-1.69c.11,2.29.27,4.2.27,6.1q0,41.47,0,82.94C1082.68,159.46,1083.88,161,1093.39,163.71Z" style="fill:#595959"/></svg>